<?xml version="1.0" encoding="UTF-8" standalone="no"?>
<svg
   viewBox="0 0 400 400"
   id="iwr-vis-menu-svg"
   version="1.1"
   xmlns:xlink="http://www.w3.org/1999/xlink"
   xmlns="http://www.w3.org/2000/svg"
   xmlns:svg="http://www.w3.org/2000/svg"
   xmlns:svgjs="http://svgjs.dev/svgjs">
  <rect
     width="400"
     height="400"
     x="0"
     y="0"
     fill="#ffffff"
     stroke="#ffffff"
     id="rect2" />
  <circle
     r="158"
     cx="200"
     cy="200"
     fill="none"
     stroke="none"
     id="circle6" />
  <path
     d="M 279,63.167986 A 158,158 0 0 1 358,200 h 20 A 178,178 0 0 0 289,45.847478 Z"
     class="iwr-vis-segment-item-arc"
     fill="#e13535"
     stroke="#ffffff"
     stroke-width="0"
     filter="url(#SvgjsFilter1002)"
     id="path8"
     style="stroke-width:0.8;stroke-miterlimit:4;stroke-dasharray:none" />
  <path
     d="M 282.5,57.105808 A 165,165 0 0 1 365,200"
     fill="none"
     stroke="none"
     id="SvgjsPath1003" />
  <text
     svgjs:data="{&quot;leading&quot;:&quot;1.3&quot;}"
     id="text15"
     style="-inkscape-font-specification:'sans-serif, Normal';font-family:sans-serif;font-weight:normal;font-style:normal;font-stretch:normal;font-variant:normal;font-size:8.26666667px;font-variant-ligatures:normal;font-variant-caps:normal;font-variant-numeric:normal;font-variant-east-asian:normal;stroke:none;stroke-opacity:1;fill:#ffffff;fill-opacity:1"><textPath
       xlink:href="#SvgjsPath1003"
       class="iwr-vis-segment-item-text"
       startOffset="50%"
       text-anchor="middle"
       font-size="8.8px"
       fill="#000000"
       svgjs:data="{&quot;leading&quot;:&quot;1.3&quot;}"
       id="textPath13"><tspan
         dy="0"
         x="0"
         svgjs:data="{&quot;newLined&quot;:true}"
         id="tspan11"
         style="-inkscape-font-specification:'sans-serif, Normal';font-family:sans-serif;font-weight:normal;font-style:normal;font-stretch:normal;font-variant:normal;font-size:8.26666667px;font-variant-ligatures:normal;font-variant-caps:normal;font-variant-numeric:normal;font-variant-east-asian:normal;stroke:none;stroke-opacity:1;fill:#ffffff;fill-opacity:1">Mathematical and Numerical Analysis</tspan></textPath></text>
  <defs
     id="defs58">
    <filter
       id="SvgjsFilter1002"
       x="-0.029761719"
       y="-0.019113603"
       width="1.0580445"
       height="1.0372774">
      <feGaussianBlur
         id="SvgjsFeGaussianBlur1000"
         result="SvgjsFeGaussianBlur1000"
         in="SourceAlpha"
         stdDeviation="1 1" />
      <feBlend
         id="SvgjsFeBlend1001"
         result="SvgjsFeBlend1001"
         in="SourceGraphic"
         in2="SvgjsFeGaussianBlur1000" />
    </filter>
    <filter
       id="SvgjsFilter1006"
       x="-0.029761719"
       y="-0.018163829"
       width="1.0580445"
       height="1.0372774">
      <feGaussianBlur
         id="SvgjsFeGaussianBlur1004"
         result="SvgjsFeGaussianBlur1004"
         in="SourceAlpha"
         stdDeviation="1 1" />
      <feBlend
         id="SvgjsFeBlend1005"
         result="SvgjsFeBlend1005"
         in="SourceGraphic"
         in2="SvgjsFeGaussianBlur1004" />
    </filter>
    <filter
       id="SvgjsFilter1010"
       x="-0.016552866"
       y="-0.071570419"
       width="1.0331057"
       height="1.139578">
      <feGaussianBlur
         id="SvgjsFeGaussianBlur1008"
         result="SvgjsFeGaussianBlur1008"
         in="SourceAlpha"
         stdDeviation="1 1" />
      <feBlend
         id="SvgjsFeBlend1009"
         result="SvgjsFeBlend1009"
         in="SourceGraphic"
         in2="SvgjsFeGaussianBlur1008" />
    </filter>
    <filter
       id="SvgjsFilter1014"
       x="-0.028282828"
       y="-0.018163829"
       width="1.0580445"
       height="1.0372774">
      <feGaussianBlur
         id="SvgjsFeGaussianBlur1012"
         result="SvgjsFeGaussianBlur1012"
         in="SourceAlpha"
         stdDeviation="1 1" />
      <feBlend
         id="SvgjsFeBlend1013"
         result="SvgjsFeBlend1013"
         in="SourceGraphic"
         in2="SvgjsFeGaussianBlur1012" />
    </filter>
    <filter
       id="SvgjsFilter1018"
       x="-0.028282828"
       y="-0.019113603"
       width="1.0580445"
       height="1.0372774">
      <feGaussianBlur
         id="SvgjsFeGaussianBlur1016"
         result="SvgjsFeGaussianBlur1016"
         in="SourceAlpha"
         stdDeviation="1 1" />
      <feBlend
         id="SvgjsFeBlend1017"
         result="SvgjsFeBlend1017"
         in="SourceGraphic"
         in2="SvgjsFeGaussianBlur1016" />
    </filter>
    <marker
       markerWidth="4"
       markerHeight="4"
       refX="2"
       refY="2"
       viewBox="0 0 4 4"
       orient="auto"
       id="SvgjsMarker1021">
      <polyline
         points="0,0 4,2 0,4"
         fill="#e13535"
         stroke="none"
         id="polyline34" />
    </marker>
    <filter
       id="SvgjsFilter1024"
       x="-0.025335311"
       y="-0.021140477"
       width="1.050196"
       height="1.0418849">
      <feGaussianBlur
         id="SvgjsFeGaussianBlur1022"
         result="SvgjsFeGaussianBlur1022"
         in="SourceAlpha"
         stdDeviation="1 1" />
      <feBlend
         id="SvgjsFeBlend1023"
         result="SvgjsFeBlend1023"
         in="SourceGraphic"
         in2="SvgjsFeGaussianBlur1022" />
    </filter>
    <filter
       id="SvgjsFilter1028"
       x="-0.050347222"
       y="-0.017186898"
       width="1.0979681"
       height="1.0348702">
      <feGaussianBlur
         id="SvgjsFeGaussianBlur1026"
         result="SvgjsFeGaussianBlur1026"
         in="SourceAlpha"
         stdDeviation="1 1" />
      <feBlend
         id="SvgjsFeBlend1027"
         result="SvgjsFeBlend1027"
         in="SourceGraphic"
         in2="SvgjsFeGaussianBlur1026" />
    </filter>
    <filter
       id="SvgjsFilter1032"
       x="-0.018087548"
       y="-0.034040091"
       width="1.0372224"
       height="1.066217">
      <feGaussianBlur
         id="SvgjsFeGaussianBlur1030"
         result="SvgjsFeGaussianBlur1030"
         in="SourceAlpha"
         stdDeviation="1 1" />
      <feBlend
         id="SvgjsFeBlend1031"
         result="SvgjsFeBlend1031"
         in="SourceGraphic"
         in2="SvgjsFeGaussianBlur1030" />
    </filter>
    <filter
       id="SvgjsFilter1036"
       x="-0.019134871"
       y="-0.034040091"
       width="1.0372224"
       height="1.066217">
      <feGaussianBlur
         id="SvgjsFeGaussianBlur1034"
         result="SvgjsFeGaussianBlur1034"
         in="SourceAlpha"
         stdDeviation="1 1" />
      <feBlend
         id="SvgjsFeBlend1035"
         result="SvgjsFeBlend1035"
         in="SourceGraphic"
         in2="SvgjsFeGaussianBlur1034" />
    </filter>
    <filter
       id="SvgjsFilter1040"
       x="-0.04762084"
       y="-0.017186898"
       width="1.0979681"
       height="1.0348702">
      <feGaussianBlur
         id="SvgjsFeGaussianBlur1038"
         result="SvgjsFeGaussianBlur1038"
         in="SourceAlpha"
         stdDeviation="1 1" />
      <feBlend
         id="SvgjsFeBlend1039"
         result="SvgjsFeBlend1039"
         in="SourceGraphic"
         in2="SvgjsFeGaussianBlur1038" />
    </filter>
    <filter
       id="SvgjsFilter1044"
       x="-0.024860706"
       y="-0.021140477"
       width="1.050196"
       height="1.0418849">
      <feGaussianBlur
         id="SvgjsFeGaussianBlur1042"
         result="SvgjsFeGaussianBlur1042"
         in="SourceAlpha"
         stdDeviation="1 1" />
      <feBlend
         id="SvgjsFeBlend1043"
         result="SvgjsFeBlend1043"
         in="SourceGraphic"
         in2="SvgjsFeGaussianBlur1042" />
    </filter>
    <marker
       markerWidth="4"
       markerHeight="4"
       refX="2"
       refY="2"
       viewBox="0 0 4 4"
       orient="auto"
       id="SvgjsMarker1047">
      <polyline
         points="0,0 4,2 0,4"
         fill="#499bce"
         stroke="none"
         id="polyline55" />
    </marker>
    <clipPath
       id="clipPath88">
      <path
         d="m 1244.7,116.53 h 524.63 V 521.6 H 1244.7 Z"
         id="path3552" />
    </clipPath>
  </defs>
  <path
     d="m 358,200 a 158,158 0 0 1 -79,136.83201 l 10,17.32051 A 178,178 0 0 0 378,200 Z"
     class="iwr-vis-segment-item-arc"
     fill="#e13535"
     stroke="#ffffff"
     stroke-width="0"
     filter="url(#SvgjsFilter1006)"
     id="path60"
     style="stroke-width:0.8;stroke-miterlimit:4;stroke-dasharray:none" />
  <path
     d="M 285,347.22432 A 170,170 0 0 0 370,200"
     fill="none"
     stroke="none"
     id="SvgjsPath1007" />
  <text
     svgjs:data="{&quot;leading&quot;:&quot;1.3&quot;}"
     id="text67"
     style="-inkscape-font-specification:'sans-serif, Normal';font-family:sans-serif;font-weight:normal;font-style:normal;font-stretch:normal;font-variant:normal;font-size:8.26666667px;font-variant-ligatures:normal;font-variant-caps:normal;font-variant-numeric:normal;font-variant-east-asian:normal;stroke:none;stroke-opacity:1;fill:#ffffff;fill-opacity:1"><textPath
       xlink:href="#SvgjsPath1007"
       class="iwr-vis-segment-item-text"
       startOffset="50%"
       text-anchor="middle"
       font-size="8.8px"
       fill="#000000"
       svgjs:data="{&quot;leading&quot;:&quot;1.3&quot;}"
       id="textPath65"><tspan
         dy="0"
         x="0"
         svgjs:data="{&quot;newLined&quot;:true}"
         id="tspan63"
         style="-inkscape-font-specification:'sans-serif, Normal';font-family:sans-serif;font-weight:normal;font-style:normal;font-stretch:normal;font-variant:normal;font-size:8.26666667px;font-variant-ligatures:normal;font-variant-caps:normal;font-variant-numeric:normal;font-variant-east-asian:normal;stroke:none;stroke-opacity:1;fill:#ffffff;fill-opacity:1">Numerical Algorithms and Software</tspan></textPath></text>
  <path
     d="m 279,336.83201 a 158,158 0 0 1 -158,0 l -10,17.32051 a 178,178 0 0 0 178,0 z"
     class="iwr-vis-segment-item-arc"
     fill="#e13535"
     stroke="#ffffff"
     stroke-width="0"
     filter="url(#SvgjsFilter1010)"
     id="path71"
     style="stroke-width:0.8;stroke-miterlimit:4;stroke-dasharray:none" />
  <path
     d="m 115,347.22432 a 170,170 0 0 0 170,0"
     fill="none"
     stroke="none"
     id="SvgjsPath1011" />
  <text
     svgjs:data="{&quot;leading&quot;:&quot;1.3&quot;}"
     id="text78"
     style="-inkscape-font-specification:'sans-serif, Normal';font-family:sans-serif;font-weight:normal;font-style:normal;font-stretch:normal;font-variant:normal;font-size:8.26666667px;font-variant-ligatures:normal;font-variant-caps:normal;font-variant-numeric:normal;font-variant-east-asian:normal;stroke:none;stroke-opacity:1;fill:#ffffff;fill-opacity:1"><textPath
       xlink:href="#SvgjsPath1011"
       class="iwr-vis-segment-item-text"
       startOffset="50%"
       text-anchor="middle"
       font-size="8.8px"
       fill="#000000"
       svgjs:data="{&quot;leading&quot;:&quot;1.3&quot;}"
       id="textPath76"><tspan
         dy="0"
         x="0"
         svgjs:data="{&quot;newLined&quot;:true}"
         id="tspan74"
         style="-inkscape-font-specification:'sans-serif, Normal';font-family:sans-serif;font-weight:normal;font-style:normal;font-stretch:normal;font-variant:normal;font-size:8.26666667px;font-variant-ligatures:normal;font-variant-caps:normal;font-variant-numeric:normal;font-variant-east-asian:normal;stroke:none;stroke-opacity:1;fill:#ffffff;fill-opacity:1">Data Analysis and Graphics</tspan></textPath></text>
  <path
     d="M 121,336.83201 A 158,158 0 0 1 42,200 H 22 a 178,178 0 0 0 89,154.15252 z"
     class="iwr-vis-segment-item-arc"
     fill="#e13535"
     stroke="#ffffff"
     stroke-width="0"
     filter="url(#SvgjsFilter1014)"
     id="path82"
     style="stroke-width:0.8;stroke-miterlimit:4;stroke-dasharray:none" />
  <path
     d="m 30,200 a 170,170 0 0 0 85,147.22432"
     fill="none"
     stroke="none"
     id="SvgjsPath1015" />
  <text
     svgjs:data="{&quot;leading&quot;:&quot;1.3&quot;}"
     id="text89"
     style="-inkscape-font-specification:'sans-serif, Normal';font-family:sans-serif;font-weight:normal;font-style:normal;font-stretch:normal;font-variant:normal;font-size:8.26666667px;font-variant-ligatures:normal;font-variant-caps:normal;font-variant-numeric:normal;font-variant-east-asian:normal;stroke:none;stroke-opacity:1;fill:#ffffff;fill-opacity:1"><textPath
       xlink:href="#SvgjsPath1015"
       class="iwr-vis-segment-item-text"
       startOffset="50%"
       text-anchor="middle"
       font-size="8.8px"
       fill="#000000"
       svgjs:data="{&quot;leading&quot;:&quot;1.3&quot;}"
       id="textPath87"><tspan
         dy="0"
         x="0"
         svgjs:data="{&quot;newLined&quot;:true}"
         id="tspan85"
         style="-inkscape-font-specification:'sans-serif, Normal';font-family:sans-serif;font-weight:normal;font-style:normal;font-stretch:normal;font-variant:normal;font-size:8.26666667px;font-variant-ligatures:normal;font-variant-caps:normal;font-variant-numeric:normal;font-variant-east-asian:normal;stroke:none;stroke-opacity:1;fill:#ffffff;fill-opacity:1">Machine Learning and Computer Vision</tspan></textPath></text>
  <path
     d="M 42,200 A 158,158 0 0 1 121,63.167986 L 111,45.847478 A 178,178 0 0 0 22,200 Z"
     class="iwr-vis-segment-item-arc"
     fill="#e13535"
     stroke="#ffffff"
     stroke-width="0"
     filter="url(#SvgjsFilter1018)"
     id="path93"
     style="stroke-width:0.8;stroke-miterlimit:4;stroke-dasharray:none" />
  <path
     d="M 35,200 A 165,165 0 0 1 117.5,57.105808"
     fill="none"
     stroke="none"
     id="SvgjsPath1019" />
  <text
     svgjs:data="{&quot;leading&quot;:&quot;1.3&quot;}"
     id="text100"
     style="-inkscape-font-specification:'sans-serif, Normal';font-family:sans-serif;font-weight:normal;font-style:normal;font-stretch:normal;font-variant:normal;font-size:8.26666667px;font-variant-ligatures:normal;font-variant-caps:normal;font-variant-numeric:normal;font-variant-east-asian:normal;stroke:none;stroke-opacity:1;fill:#ffffff;fill-opacity:1"><textPath
       xlink:href="#SvgjsPath1019"
       class="iwr-vis-segment-item-text"
       startOffset="50%"
       text-anchor="middle"
       font-size="8.8px"
       fill="#000000"
       svgjs:data="{&quot;leading&quot;:&quot;1.3&quot;}"
       id="textPath98"><tspan
         dy="0"
         x="0"
         svgjs:data="{&quot;newLined&quot;:true}"
         id="tspan96"
         style="-inkscape-font-specification:'sans-serif, Normal';font-family:sans-serif;font-weight:normal;font-style:normal;font-stretch:normal;font-variant:normal;font-size:8.26666667px;font-variant-ligatures:normal;font-variant-caps:normal;font-variant-numeric:normal;font-variant-east-asian:normal;stroke:none;stroke-opacity:1;fill:#ffffff;fill-opacity:1">Arithmetic, Geometry and Topology</tspan></textPath></text>
  <path
     d="m 122.75384,62.170286 a 158,158 0 0 1 154.49232,0 l 9.778,-17.446799 a 178,178 0 0 0 -174.04832,0 z"
     fill="#ffffff"
     id="path104" />
  <path
     d="m 117.5,57.105808 a 165,165 0 0 1 165,0"
     fill="none"
     stroke="none"
     id="SvgjsPath1020" />
  <text
     svgjs:data="{&quot;leading&quot;:&quot;1.3&quot;}"
     id="text111"
     style="-inkscape-font-specification:'sans-serif, Bold';font-family:sans-serif;font-weight:bold;font-style:normal;font-stretch:normal;font-variant:normal;font-size:10px;font-variant-ligatures:normal;font-variant-caps:normal;font-variant-numeric:normal;font-variant-east-asian:normal"><textPath
       xlink:href="#SvgjsPath1020"
       startOffset="50%"
       text-anchor="middle"
       font-size="10.56px"
       fill="#e13535"
       font-weight="bold"
       svgjs:data="{&quot;leading&quot;:&quot;1.3&quot;}"
       id="textPath109"><tspan
         dy="0"
         x="0"
         svgjs:data="{&quot;newLined&quot;:true}"
         id="tspan107"
         style="-inkscape-font-specification:'sans-serif, Bold';font-family:sans-serif;font-weight:bold;font-style:normal;font-stretch:normal;font-variant:normal;font-size:10px;font-variant-ligatures:normal;font-variant-caps:normal;font-variant-numeric:normal;font-variant-east-asian:normal">METHODS</tspan></textPath></text>
  <path
     d="M 230.61557,34.813176 A 168,168 0 0 1 276.2704,50.310904"
     fill="none"
     stroke="#e13535"
     stroke-width="2"
     marker-end="url(#SvgjsMarker1021)"
     id="path113" />
  <path
     d="M 169.38443,34.813176 A 168,168 0 0 0 123.7296,50.310904"
     fill="none"
     stroke="#e13535"
     stroke-width="2"
     marker-end="url(#SvgjsMarker1021)"
     id="path115" />
  <path
     d="m 277.23131,39.627542 a 178,178 0 0 1 96.30586,120.763728 l 19.49856,-4.45041 A 198,198 0 0 0 285.90898,21.608164 Z"
     class="iwr-vis-segment-item-arc"
     fill="#499bce"
     stroke="#ffffff"
     stroke-width="0"
     filter="url(#SvgjsFilter1024)"
     id="path119"
     style="stroke-width:0.8;stroke-miterlimit:4;stroke-dasharray:none" />
  <path
     d="M 280.26849,33.320759 A 185,185 0 0 1 380.36166,158.83363"
     fill="none"
     stroke="none"
     id="SvgjsPath1025" />
  <text
     svgjs:data="{&quot;leading&quot;:&quot;1.3&quot;}"
     id="text126"
     style="-inkscape-font-specification:'sans-serif, Normal';font-family:sans-serif;font-weight:normal;font-style:normal;font-stretch:normal;font-variant:normal;font-size:8.26666667px;font-variant-ligatures:normal;font-variant-caps:normal;font-variant-numeric:normal;font-variant-east-asian:normal;stroke:none;stroke-opacity:1;fill:#ffffff;fill-opacity:1"><textPath
       xlink:href="#SvgjsPath1025"
       class="iwr-vis-segment-item-text"
       startOffset="50%"
       text-anchor="middle"
       font-size="8.8px"
       fill="#000000"
       svgjs:data="{&quot;leading&quot;:&quot;1.3&quot;}"
       id="textPath124"><tspan
         dy="0"
         x="0"
         svgjs:data="{&quot;newLined&quot;:true}"
         id="tspan122"
         style="-inkscape-font-specification:'sans-serif, Normal';font-family:sans-serif;font-weight:normal;font-style:normal;font-stretch:normal;font-variant:normal;font-size:8.26666667px;font-variant-ligatures:normal;font-variant-caps:normal;font-variant-numeric:normal;font-variant-east-asian:normal;stroke:none;stroke-opacity:1;fill:#ffffff;fill-opacity:1">Molecular Material Science</tspan></textPath></text>
  <path
     d="M 373.53717,160.39127 A 178,178 0 0 1 339.166,310.98118 l 15.63663,12.4698 a 198,198 0 0 0 38.2331,-167.51012 z"
     class="iwr-vis-segment-item-arc"
     fill="#499bce"
     stroke="#ffffff"
     stroke-width="0"
     filter="url(#SvgjsFilter1028)"
     id="path130"
     style="stroke-width:0.8;stroke-miterlimit:4;stroke-dasharray:none" />
  <path
     d="M 348.54798,318.46306 A 190,190 0 0 0 385.2363,157.72102"
     fill="none"
     stroke="none"
     id="SvgjsPath1029" />
  <text
     svgjs:data="{&quot;leading&quot;:&quot;1.3&quot;}"
     id="text137"
     style="-inkscape-font-specification:'sans-serif, Normal';font-family:sans-serif;font-weight:normal;font-style:normal;font-stretch:normal;font-variant:normal;font-size:8.26666667px;font-variant-ligatures:normal;font-variant-caps:normal;font-variant-numeric:normal;font-variant-east-asian:normal;stroke:none;stroke-opacity:1;fill:#ffffff;fill-opacity:1"><textPath
       xlink:href="#SvgjsPath1029"
       class="iwr-vis-segment-item-text"
       startOffset="50%"
       text-anchor="middle"
       font-size="8.8px"
       fill="#000000"
       svgjs:data="{&quot;leading&quot;:&quot;1.3&quot;}"
       id="textPath135"><tspan
         dy="0"
         x="0"
         svgjs:data="{&quot;newLined&quot;:true}"
         id="tspan133"
         style="-inkscape-font-specification:'sans-serif, Normal';font-family:sans-serif;font-weight:normal;font-style:normal;font-stretch:normal;font-variant:normal;font-size:8.26666667px;font-variant-ligatures:normal;font-variant-caps:normal;font-variant-numeric:normal;font-variant-east-asian:normal;stroke:none;stroke-opacity:1;fill:#ffffff;fill-opacity:1">Medicine and Bioscience</tspan></textPath></text>
  <path
     d="M 339.166,310.98118 A 178,178 0 0 1 200,378 v 20 a 198,198 0 0 0 154.80263,-74.54902 z"
     class="iwr-vis-segment-item-arc"
     fill="#499bce"
     stroke="#ffffff"
     stroke-width="0"
     filter="url(#SvgjsFilter1032)"
     id="path141"
     style="stroke-width:0.8;stroke-miterlimit:4;stroke-dasharray:none" />
  <path
     d="M 200,390 A 190,190 0 0 0 348.54798,318.46306"
     fill="none"
     stroke="none"
     id="SvgjsPath1033" />
  <text
     svgjs:data="{&quot;leading&quot;:&quot;1.3&quot;}"
     id="text148"
     style="-inkscape-font-specification:'sans-serif, Normal';font-family:sans-serif;font-weight:normal;font-style:normal;font-stretch:normal;font-variant:normal;font-size:8.26666667px;font-variant-ligatures:normal;font-variant-caps:normal;font-variant-numeric:normal;font-variant-east-asian:normal;stroke:none;stroke-opacity:1;fill:#ffffff;fill-opacity:1"><textPath
       xlink:href="#SvgjsPath1033"
       class="iwr-vis-segment-item-text"
       startOffset="50%"
       text-anchor="middle"
       font-size="8.8px"
       fill="#000000"
       svgjs:data="{&quot;leading&quot;:&quot;1.3&quot;}"
       id="textPath146"><tspan
         dy="0"
         x="0"
         svgjs:data="{&quot;newLined&quot;:true}"
         id="tspan144"
         style="-inkscape-font-specification:'sans-serif, Normal';font-family:sans-serif;font-weight:normal;font-style:normal;font-stretch:normal;font-variant:normal;font-size:8.26666667px;font-variant-ligatures:normal;font-variant-caps:normal;font-variant-numeric:normal;font-variant-east-asian:normal;stroke:none;stroke-opacity:1;fill:#ffffff;fill-opacity:1">Humanities</tspan></textPath></text>
  <path
     d="M 200,378 A 178,178 0 0 1 60.833996,310.98118 l -15.63663,12.4698 A 198,198 0 0 0 200,398 Z"
     class="iwr-vis-segment-item-arc"
     fill="#499bce"
     stroke="#ffffff"
     stroke-width="0"
     filter="url(#SvgjsFilter1036)"
     id="path152"
     style="stroke-width:0.8;stroke-miterlimit:4;stroke-dasharray:none" />
  <path
     d="M 51.452018,318.46306 A 190,190 0 0 0 200,390"
     fill="none"
     stroke="none"
     id="SvgjsPath1037" />
  <text
     svgjs:data="{&quot;leading&quot;:&quot;1.3&quot;}"
     id="text159"
     style="-inkscape-font-specification:'sans-serif, Normal';font-family:sans-serif;font-weight:normal;font-style:normal;font-stretch:normal;font-variant:normal;font-size:8.26666667px;font-variant-ligatures:normal;font-variant-caps:normal;font-variant-numeric:normal;font-variant-east-asian:normal;stroke:none;stroke-opacity:1;fill:#ffffff;fill-opacity:1"><textPath
       xlink:href="#SvgjsPath1037"
       class="iwr-vis-segment-item-text"
       startOffset="50%"
       text-anchor="middle"
       font-size="8.8px"
       fill="#000000"
       svgjs:data="{&quot;leading&quot;:&quot;1.3&quot;}"
       id="textPath157"><tspan
         dy="0"
         x="0"
         svgjs:data="{&quot;newLined&quot;:true}"
         id="tspan155"
         style="-inkscape-font-specification:'sans-serif, Normal';font-family:sans-serif;font-weight:normal;font-style:normal;font-stretch:normal;font-variant:normal;font-size:8.26666667px;font-variant-ligatures:normal;font-variant-caps:normal;font-variant-numeric:normal;font-variant-east-asian:normal;stroke:none;stroke-opacity:1;fill:#ffffff;fill-opacity:1">Astrophysics</tspan></textPath></text>
  <path
     d="M 60.833996,310.98118 A 178,178 0 0 1 26.462832,160.39127 L 6.9642734,155.94086 A 198,198 0 0 0 45.197366,323.45098 Z"
     class="iwr-vis-segment-item-arc"
     fill="#499bce"
     stroke="#ffffff"
     stroke-width="0"
     filter="url(#SvgjsFilter1040)"
     id="path163"
     style="stroke-width:0.8;stroke-miterlimit:4;stroke-dasharray:none" />
  <path
     d="M 14.763697,157.72102 A 190,190 0 0 0 51.452018,318.46306"
     fill="none"
     stroke="none"
     id="SvgjsPath1041" />
  <text
     svgjs:data="{&quot;leading&quot;:&quot;1.3&quot;}"
     id="text170"
     style="-inkscape-font-specification:'sans-serif, Normal';font-family:sans-serif;font-weight:normal;font-style:normal;font-stretch:normal;font-variant:normal;font-size:8.26666667px;font-variant-ligatures:normal;font-variant-caps:normal;font-variant-numeric:normal;font-variant-east-asian:normal;stroke:none;stroke-opacity:1;fill:#ffffff;fill-opacity:1"><textPath
       xlink:href="#SvgjsPath1041"
       class="iwr-vis-segment-item-text"
       startOffset="50%"
       text-anchor="middle"
       font-size="8.8px"
       fill="#000000"
       svgjs:data="{&quot;leading&quot;:&quot;1.3&quot;}"
       id="textPath168"><tspan
         dy="0"
         x="0"
         svgjs:data="{&quot;newLined&quot;:true}"
         id="tspan166"
         style="-inkscape-font-specification:'sans-serif, Normal';font-family:sans-serif;font-weight:normal;font-style:normal;font-stretch:normal;font-variant:normal;font-size:8.26666667px;font-variant-ligatures:normal;font-variant-caps:normal;font-variant-numeric:normal;font-variant-east-asian:normal;stroke:none;stroke-opacity:1;fill:#ffffff;fill-opacity:1">Environmental Sciences</tspan></textPath></text>
  <path
     d="M 26.462832,160.39127 A 178,178 0 0 1 122.76869,39.627542 L 114.09102,21.608164 A 198,198 0 0 0 6.9642734,155.94086 Z"
     class="iwr-vis-segment-item-arc"
     fill="#499bce"
     stroke="#ffffff"
     stroke-width="0"
     filter="url(#SvgjsFilter1044)"
     id="path174"
     style="stroke-width:0.8;stroke-miterlimit:4;stroke-dasharray:none" />
  <path
     d="M 19.638336,158.83363 A 185,185 0 0 1 119.73151,33.320759"
     fill="none"
     stroke="none"
     id="SvgjsPath1045" />
  <text
     svgjs:data="{&quot;leading&quot;:&quot;1.3&quot;}"
     id="text181"
     style="-inkscape-font-specification:'sans-serif, Normal';font-family:sans-serif;font-weight:normal;font-style:normal;font-stretch:normal;font-variant:normal;font-size:8.26666667px;font-variant-ligatures:normal;font-variant-caps:normal;font-variant-numeric:normal;font-variant-east-asian:normal;stroke:none;stroke-opacity:1;fill:#ffffff;fill-opacity:1"><textPath
       xlink:href="#SvgjsPath1045"
       class="iwr-vis-segment-item-text"
       startOffset="50%"
       text-anchor="middle"
       font-size="8.8px"
       fill="#000000"
       svgjs:data="{&quot;leading&quot;:&quot;1.3&quot;}"
       id="textPath179"><tspan
         dy="0"
         x="0"
         svgjs:data="{&quot;newLined&quot;:true}"
         id="tspan177"
         style="-inkscape-font-specification:'sans-serif, Normal';font-family:sans-serif;font-weight:normal;font-style:normal;font-stretch:normal;font-variant:normal;font-size:8.26666667px;font-variant-ligatures:normal;font-variant-caps:normal;font-variant-numeric:normal;font-variant-east-asian:normal;stroke:none;stroke-opacity:1;fill:#ffffff;fill-opacity:1">Engineering</tspan></textPath></text>
  <path
     d="m 124.52877,38.791768 a 178,178 0 0 1 150.94246,0 l 8.47991,-18.113284 a 198,198 0 0 0 -167.90228,0 z"
     fill="#ffffff"
     id="path185" />
  <path
     d="m 119.73151,33.320759 a 185,185 0 0 1 160.53698,0"
     fill="none"
     stroke="none"
     id="SvgjsPath1046" />
  <text
     svgjs:data="{&quot;leading&quot;:&quot;1.3&quot;}"
     id="text192"
     style="-inkscape-font-specification:'sans-serif, Bold';font-family:sans-serif;font-weight:bold;font-style:normal;font-stretch:normal;font-variant:normal;font-size:10px;font-variant-ligatures:normal;font-variant-caps:normal;font-variant-numeric:normal;font-variant-east-asian:normal"><textPath
       xlink:href="#SvgjsPath1046"
       startOffset="50%"
       text-anchor="middle"
       font-size="10.56px"
       fill="#499bce"
       font-weight="bold"
       svgjs:data="{&quot;leading&quot;:&quot;1.3&quot;}"
       id="textPath190"><tspan
         dy="0"
         x="0"
         svgjs:data="{&quot;newLined&quot;:true}"
         id="tspan188"
         style="-inkscape-font-specification:'sans-serif, Bold';font-family:sans-serif;font-weight:bold;font-style:normal;font-stretch:normal;font-variant:normal;font-size:10px;font-variant-ligatures:normal;font-variant-caps:normal;font-variant-numeric:normal;font-variant-east-asian:normal">APPLICATIONS</tspan></textPath></text>
  <path
     d="m 242.2908,16.818428 a 188,188 0 0 1 30.30278,9.762506"
     fill="none"
     stroke="#499bce"
     stroke-width="2"
     marker-end="url(#SvgjsMarker1047)"
     id="path194" />
  <path
     d="m 157.7092,16.818428 a 188,188 0 0 0 -30.30278,9.762506"
     fill="none"
     stroke="#499bce"
     stroke-width="2"
     marker-end="url(#SvgjsMarker1047)"
     id="path196" />
  <g
     transform="matrix(3.9485886,0,0,-3.9485886,-393.97206,322.48884)"
     id="g3679">
    <g
       transform="scale(0.1)"
       id="g3677">
      <g
         clip-path="url(#clipPath88)"
         id="g3675">
        <g
           fill="#2a2a2b"
           id="g3567">
          <path
             d="m 1285.3,136.65 c 0,-11.109 -9.09,-20.121 -20.3,-20.121 -11.21,0 -20.3,9.012 -20.3,20.121 0,11.11 9.09,20.118 20.3,20.118 11.21,0 20.3,-9.008 20.3,-20.118"
             id="path3557" />
          <path
             d="m 1374.7,136.65 c 0,-11.109 -9.08,-20.121 -20.29,-20.121 -11.21,0 -20.3,9.012 -20.3,20.121 0,11.11 9.09,20.118 20.3,20.118 11.21,0 20.29,-9.008 20.29,-20.118"
             id="path3559" />
          <path
             d="m 1464.1,136.65 c 0,-11.109 -9.08,-20.121 -20.3,-20.121 -11.21,0 -20.29,9.012 -20.29,20.121 0,11.11 9.08,20.118 20.29,20.118 11.22,0 20.3,-9.008 20.3,-20.118"
             id="path3561" />
          <path
             d="m 1553.5,136.71 c 0,-11.109 -9.09,-20.117 -20.3,-20.117 -11.21,0 -20.29,9.008 -20.29,20.117 0,11.109 9.08,20.117 20.29,20.117 11.21,0 20.3,-9.008 20.3,-20.117"
             id="path3563" />
          <path
             d="m 1643,136.9 c 0,-11.109 -9.09,-20.121 -20.3,-20.121 -11.21,0 -20.3,9.012 -20.3,20.121 0,11.11 9.09,20.118 20.3,20.118 11.21,0 20.3,-9.008 20.3,-20.118"
             id="path3565" />
        </g>
        <path
           d="m 1768.8,134.56 c 0,-9.922 -9.01,-17.965 -20.13,-17.965 h -41.32 c -11.13,0 -20.14,8.043 -20.14,17.965 v 4.492 c 0,9.922 9.01,17.965 20.14,17.965 h 41.32 c 11.12,0 20.13,-8.043 20.13,-17.965 v -4.492"
           fill="#a1131b"
           id="path3569" />
        <g
           fill="#2a2a2b"
           id="g3673">
          <path
             d="m 1285.1,334.99 c -0.56,-12.675 -7.58,-22.129 -20.25,-21.937 -11.87,-0.211 -20.36,10.57 -20.03,21.937 l 0.01,166.38 c 0.08,6.735 6.08,20.262 20.02,19.852 13.42,0.308 20.34,-12.649 20.29,-19.856 l -0.04,-166.37"
             id="path3571" />
          <path
             d="m 1374,334.99 c -0.56,-12.679 -7.58,-22.129 -20.24,-21.937 -11.87,-0.211 -20.37,10.57 -20.04,21.937 l 0.01,166.37 c 0.08,6.735 6.08,20.266 20.03,19.856 13.41,0.308 20.33,-12.652 20.29,-19.856 L 1374,334.99"
             id="path3573" />
          <path
             d="m 1552.6,334.99 c -0.56,-12.679 -7.58,-22.129 -20.24,-21.937 -11.87,-0.211 -20.37,10.57 -20.04,21.937 l 0.01,166.37 c 0.08,6.735 6.08,20.266 20.03,19.856 13.41,0.308 20.33,-12.652 20.29,-19.856 l -0.05,-166.37"
             id="path3575" />
          <path
             d="m 1643.4,334.99 c -0.56,-12.679 -7.58,-22.129 -20.24,-21.937 -11.88,-0.211 -20.37,10.57 -20.04,21.937 l 0.01,166.37 c 0.08,6.735 6.08,20.266 20.03,19.856 13.41,0.308 20.33,-12.652 20.28,-19.856 l -0.04,-166.37"
             id="path3577" />
          <path
             d="m 1522.7,315.57 c -8.8,5.489 -40.66,39.067 -81.74,38.879 -39.42,-0.629 -64.96,-30.129 -74.32,-36.867 l 7.01,53.129 c 0,0 35.51,21.098 68.83,20.723 32.28,1.125 70.74,-21.293 70.74,-21.293 l 9.48,-54.571"
             id="path3579" />
          <path
             d="m 1650.3,505.31 c 2.38,19.816 19.88,16.07 43.46,15.882 35.84,-0.371 46.63,-7.109 58.36,-19.648 12.29,-12.602 14.97,-38.801 10.23,-55.77 -9.42,-32.187 -38.24,-36.804 -42.17,-38.425 12.47,-21.024 42.54,-56.364 46.66,-72.114 2.81,-7.422 0.47,-14.379 -6.92,-19.152 -14.93,-7.484 -24.96,0.441 -30.02,7.18 -15.13,20.519 -35.05,68.343 -56.26,76.57 -4.07,0.98 -21.85,-2.293 -23.3,17.309 1.74,24.843 26.64,13.816 56.05,18.152 17.9,2.621 25.83,5.055 26.26,25.203 -0.04,15.328 -11.72,23.207 -19.33,24.703 -35.19,6.52 -63.07,-8.125 -63.02,20.11"
             id="path3581" />
          <path
             d="m 1248.5,279.62 h 3.34 v -33.336 h -3.34 v 33.336"
             id="path3583" />
          <path
             d="m 1259.3,270.94 h 3.17 v -4.418 c 1.27,1.691 2.68,2.957 4.22,3.796 1.54,0.84 3.22,1.258 5.03,1.258 1.84,0 3.48,-0.469 4.91,-1.406 1.43,-0.938 2.48,-2.195 3.16,-3.785 0.68,-1.582 1.02,-4.055 1.02,-7.41 v -12.692 h -3.17 v 11.762 c 0,2.84 -0.12,4.738 -0.36,5.691 -0.37,1.629 -1.07,2.856 -2.11,3.684 -1.04,0.82 -2.4,1.23 -4.08,1.23 -1.92,0 -3.64,-0.632 -5.16,-1.902 -1.52,-1.269 -2.52,-2.84 -3,-4.715 -0.3,-1.218 -0.46,-3.457 -0.46,-6.707 v -9.043 h -3.17 v 24.657"
             id="path3585" />
          <path
             d="m 1290.7,280.09 h 3.17 v -9.156 h 5.04 v -2.743 h -5.04 v -21.914 h -3.17 v 21.914 h -4.33 v 2.743 h 4.33 v 9.156"
             id="path3587" />
          <path
             d="m 1324.8,261.1 c -0.43,1.692 -1.05,3.043 -1.86,4.055 -0.8,1.012 -1.87,1.828 -3.21,2.449 -1.32,0.618 -2.73,0.93 -4.19,0.93 -2.42,0 -4.5,-0.781 -6.24,-2.336 -1.27,-1.133 -2.23,-2.832 -2.88,-5.098 z m 0,-6.64 2.67,-1.406 c -0.88,-1.723 -1.89,-3.11 -3.04,-4.168 -1.15,-1.059 -2.44,-1.864 -3.88,-2.414 -1.44,-0.551 -3.06,-0.829 -4.87,-0.829 -4.03,0 -7.17,1.317 -9.44,3.954 -2.27,2.636 -3.4,5.617 -3.4,8.941 0,3.129 0.96,5.914 2.87,8.363 2.44,3.114 5.7,4.668 9.78,4.668 4.2,0 7.56,-1.594 10.07,-4.781 1.79,-2.25 2.69,-5.063 2.72,-8.43 h -22.18 c 0.06,-2.863 0.97,-5.215 2.74,-7.043 1.77,-1.832 3.96,-2.746 6.56,-2.746 1.26,0 2.48,0.215 3.67,0.653 1.18,0.437 2.19,1.015 3.02,1.738 0.84,0.723 1.74,1.887 2.71,3.5"
             id="path3589" />
          <path
             d="m 1333.4,270.94 h 3.24 v -3.602 c 0.97,1.422 1.99,2.48 3.06,3.184 1.07,0.703 2.19,1.054 3.35,1.054 0.88,0 1.82,-0.281 2.82,-0.84 l -1.66,-2.671 c -0.66,0.285 -1.22,0.429 -1.68,0.429 -1.06,0 -2.07,-0.433 -3.06,-1.304 -0.98,-0.868 -1.73,-2.215 -2.24,-4.043 -0.39,-1.407 -0.59,-4.247 -0.59,-8.52 v -8.344 h -3.24 v 24.657"
             id="path3591" />
          <path
             d="m 1360.9,268.52 c -1.77,0 -3.4,-0.434 -4.9,-1.305 -1.49,-0.863 -2.68,-2.086 -3.56,-3.652 -0.88,-1.571 -1.33,-3.231 -1.33,-4.981 0,-1.734 0.45,-3.398 1.34,-4.98 0.89,-1.586 2.09,-2.821 3.59,-3.7 1.5,-0.886 3.11,-1.324 4.83,-1.324 1.74,0 3.38,0.438 4.94,1.313 1.55,0.875 2.75,2.058 3.58,3.551 0.84,1.496 1.26,3.179 1.26,5.05 0,2.848 -0.94,5.235 -2.82,7.153 -1.88,1.914 -4.19,2.875 -6.93,2.875 z m 12.68,11.941 v -34.176 h -3.13 v 4.239 c -1.33,-1.618 -2.82,-2.832 -4.48,-3.649 -1.65,-0.816 -3.47,-1.223 -5.43,-1.223 -3.49,0 -6.46,1.266 -8.94,3.797 -2.47,2.532 -3.7,5.61 -3.7,9.235 0,3.55 1.25,6.586 3.74,9.109 2.49,2.524 5.49,3.785 8.99,3.785 2.03,0 3.86,-0.429 5.5,-1.293 1.64,-0.859 3.08,-2.152 4.32,-3.875 v 14.051 h 3.13"
             id="path3593" />
          <path
             d="m 1380.6,270.94 h 3.18 v -24.657 h -3.18 z m 1.58,10.152 c 0.72,0 1.34,-0.254 1.85,-0.77 0.51,-0.511 0.76,-1.132 0.76,-1.855 0,-0.711 -0.25,-1.324 -0.76,-1.84 -0.51,-0.512 -1.13,-0.77 -1.85,-0.77 -0.71,0 -1.32,0.258 -1.83,0.77 -0.51,0.516 -0.77,1.129 -0.77,1.84 0,0.723 0.26,1.344 0.77,1.855 0.51,0.516 1.12,0.77 1.83,0.77"
             id="path3595" />
          <path
             d="m 1403.2,268.24 -2.04,-2.109 c -1.7,1.648 -3.36,2.472 -4.98,2.472 -1.03,0 -1.91,-0.339 -2.65,-1.019 -0.73,-0.68 -1.1,-1.473 -1.1,-2.383 0,-0.797 0.3,-1.562 0.91,-2.285 0.6,-0.742 1.88,-1.609 3.82,-2.605 2.36,-1.227 3.96,-2.403 4.81,-3.54 0.83,-1.144 1.25,-2.437 1.25,-3.875 0,-2.023 -0.71,-3.738 -2.13,-5.14 -1.43,-1.406 -3.2,-2.11 -5.34,-2.11 -1.42,0 -2.78,0.313 -4.07,0.93 -1.29,0.617 -2.36,1.473 -3.21,2.563 l 1.99,2.261 c 1.62,-1.824 3.34,-2.738 5.16,-2.738 1.27,0 2.35,0.406 3.25,1.223 0.89,0.816 1.34,1.773 1.34,2.879 0,0.906 -0.3,1.714 -0.89,2.425 -0.59,0.696 -1.92,1.567 -4,2.629 -2.22,1.145 -3.74,2.282 -4.54,3.395 -0.8,1.121 -1.2,2.398 -1.2,3.832 0,1.875 0.63,3.43 1.92,4.668 1.27,1.238 2.89,1.859 4.84,1.859 2.27,0 4.56,-1.109 6.86,-3.332"
             id="path3597" />
          <path
             d="m 1433.1,265.82 -2.52,-1.562 c -2.17,2.887 -5.14,4.328 -8.89,4.328 -3,0 -5.5,-0.965 -7.48,-2.898 -1.99,-1.93 -2.98,-4.278 -2.98,-7.039 0,-1.797 0.46,-3.485 1.37,-5.071 0.91,-1.586 2.17,-2.812 3.76,-3.687 1.59,-0.875 3.37,-1.313 5.35,-1.313 3.62,0 6.58,1.442 8.87,4.324 l 2.52,-1.652 c -1.18,-1.773 -2.76,-3.152 -4.75,-4.129 -1.98,-0.976 -4.25,-1.469 -6.78,-1.469 -3.9,0 -7.14,1.239 -9.7,3.715 -2.57,2.481 -3.86,5.492 -3.86,9.043 0,2.387 0.6,4.606 1.81,6.653 1.19,2.046 2.85,3.644 4.95,4.793 2.1,1.148 4.44,1.722 7.05,1.722 1.62,0 3.2,-0.25 4.72,-0.75 1.52,-0.496 2.8,-1.148 3.86,-1.945 1.06,-0.801 1.96,-1.824 2.7,-3.063"
             id="path3599" />
          <path
             d="m 1439.1,270.94 h 3.17 v -24.657 h -3.17 z m 1.58,10.152 c 0.72,0 1.33,-0.254 1.84,-0.77 0.52,-0.511 0.77,-1.132 0.77,-1.855 0,-0.711 -0.25,-1.324 -0.77,-1.84 -0.51,-0.512 -1.12,-0.77 -1.84,-0.77 -0.71,0 -1.32,0.258 -1.83,0.77 -0.51,0.516 -0.77,1.129 -0.77,1.84 0,0.723 0.26,1.344 0.77,1.855 0.51,0.516 1.12,0.77 1.83,0.77"
             id="path3601" />
          <path
             d="m 1461.9,268.52 c -2.75,0 -5.06,-0.961 -6.94,-2.875 -1.87,-1.918 -2.81,-4.305 -2.81,-7.153 0,-1.871 0.42,-3.554 1.26,-5.05 0.83,-1.493 2.03,-2.676 3.59,-3.551 1.56,-0.875 3.21,-1.313 4.94,-1.313 1.7,0 3.31,0.438 4.81,1.324 1.5,0.879 2.69,2.114 3.58,3.7 0.89,1.582 1.33,3.246 1.33,4.98 0,1.75 -0.44,3.41 -1.32,4.981 -0.88,1.566 -2.07,2.789 -3.56,3.652 -1.49,0.871 -3.12,1.305 -4.88,1.305 z m -12.69,2.422 h 3.17 v -4.532 c 1.25,1.723 2.69,3.016 4.32,3.875 1.63,0.864 3.45,1.293 5.46,1.293 3.5,0 6.5,-1.261 8.98,-3.785 2.5,-2.523 3.74,-5.559 3.74,-9.109 0,-3.625 -1.23,-6.703 -3.7,-9.235 -2.47,-2.531 -5.45,-3.797 -8.93,-3.797 -1.97,0 -3.77,0.407 -5.41,1.223 -1.65,0.817 -3.13,2.031 -4.46,3.649 v -13.258 h -3.17 v 33.676"
             id="path3603" />
          <path
             d="m 1480.8,280.46 h 3.18 v -34.176 h -3.18 v 34.176"
             id="path3605" />
          <path
             d="m 1490.4,270.94 h 3.18 v -24.657 h -3.18 z m 1.58,10.152 c 0.72,0 1.34,-0.254 1.85,-0.77 0.51,-0.511 0.77,-1.132 0.77,-1.855 0,-0.711 -0.26,-1.324 -0.77,-1.84 -0.51,-0.512 -1.13,-0.77 -1.85,-0.77 -0.7,0 -1.31,0.258 -1.83,0.77 -0.51,0.516 -0.77,1.129 -0.77,1.84 0,0.723 0.26,1.344 0.77,1.855 0.52,0.516 1.13,0.77 1.83,0.77"
             id="path3607" />
          <path
             d="m 1500.6,270.94 h 3.18 v -4.418 c 1.27,1.691 2.67,2.957 4.21,3.796 1.54,0.84 3.22,1.258 5.03,1.258 1.85,0 3.48,-0.469 4.91,-1.406 1.43,-0.938 2.48,-2.195 3.16,-3.785 0.68,-1.582 1.02,-4.055 1.02,-7.41 v -12.692 h -3.17 v 11.762 c 0,2.84 -0.12,4.738 -0.35,5.691 -0.37,1.629 -1.08,2.856 -2.12,3.684 -1.04,0.82 -2.4,1.23 -4.08,1.23 -1.92,0 -3.64,-0.632 -5.16,-1.902 -1.52,-1.269 -2.52,-2.84 -3,-4.715 -0.3,-1.218 -0.45,-3.457 -0.45,-6.707 v -9.043 h -3.18 v 24.657"
             id="path3609" />
          <path
             d="m 1541.1,268.52 c -1.77,0 -3.4,-0.434 -4.89,-1.305 -1.5,-0.863 -2.68,-2.086 -3.57,-3.652 -0.88,-1.571 -1.32,-3.231 -1.32,-4.981 0,-1.734 0.45,-3.398 1.33,-4.98 0.89,-1.586 2.09,-2.821 3.59,-3.7 1.5,-0.886 3.11,-1.324 4.83,-1.324 1.74,0 3.38,0.438 4.94,1.313 1.55,0.875 2.75,2.058 3.59,3.551 0.83,1.496 1.25,3.179 1.25,5.05 0,2.848 -0.94,5.235 -2.82,7.153 -1.87,1.914 -4.19,2.875 -6.93,2.875 z m 12.68,2.422 v -24.657 h -3.13 v 4.239 c -1.33,-1.618 -2.82,-2.832 -4.47,-3.649 -1.66,-0.816 -3.47,-1.223 -5.43,-1.223 -3.5,0 -6.48,1.266 -8.95,3.797 -2.46,2.532 -3.7,5.61 -3.7,9.235 0,3.55 1.25,6.586 3.74,9.109 2.49,2.524 5.49,3.785 9,3.785 2.02,0 3.85,-0.429 5.49,-1.293 1.64,-0.859 3.08,-2.152 4.32,-3.875 v 4.532 h 3.13"
             id="path3611" />
          <path
             d="m 1560.1,270.94 h 3.24 v -3.602 c 0.96,1.422 1.98,2.48 3.06,3.184 1.07,0.703 2.19,1.054 3.35,1.054 0.88,0 1.81,-0.281 2.81,-0.84 l -1.66,-2.671 c -0.66,0.285 -1.22,0.429 -1.67,0.429 -1.06,0 -2.08,-0.433 -3.06,-1.304 -0.98,-0.868 -1.73,-2.215 -2.25,-4.043 -0.39,-1.407 -0.58,-4.247 -0.58,-8.52 v -8.344 h -3.24 v 24.657"
             id="path3613" />
          <path
             d="m 1573,270.94 h 3.35 l 8.47,-18.985 8.23,18.985 h 3.38 l -14.71,-33.676 h -3.35 l 4.75,10.89 -10.12,22.786"
             id="path3615" />
          <path
             d="m 1645.7,273.43 -2.63,-2.016 c -1.45,1.887 -3.19,3.316 -5.22,4.293 -2.03,0.973 -4.27,1.461 -6.7,1.461 -2.66,0 -5.12,-0.637 -7.38,-1.914 -2.27,-1.281 -4.03,-2.992 -5.27,-5.149 -1.25,-2.148 -1.87,-4.57 -1.87,-7.261 0,-4.063 1.39,-7.453 4.18,-10.176 2.78,-2.719 6.3,-4.078 10.55,-4.078 4.66,0 8.57,1.828 11.71,5.484 l 2.63,-1.996 c -1.66,-2.113 -3.73,-3.746 -6.22,-4.902 -2.49,-1.157 -5.26,-1.735 -8.33,-1.735 -5.83,0 -10.43,1.942 -13.8,5.825 -2.83,3.277 -4.24,7.238 -4.24,11.875 0,4.878 1.71,8.984 5.13,12.316 3.43,3.332 7.71,4.996 12.87,4.996 3.11,0 5.92,-0.617 8.43,-1.848 2.5,-1.23 4.56,-2.957 6.16,-5.175"
             id="path3617" />
          <path
             d="m 1673,261.1 c -0.42,1.692 -1.04,3.043 -1.84,4.055 -0.81,1.012 -1.88,1.828 -3.22,2.449 -1.32,0.618 -2.73,0.93 -4.19,0.93 -2.42,0 -4.51,-0.781 -6.24,-2.336 -1.27,-1.133 -2.23,-2.832 -2.88,-5.098 z m 0,-6.64 2.68,-1.406 c -0.88,-1.723 -1.89,-3.11 -3.04,-4.168 -1.15,-1.059 -2.44,-1.864 -3.88,-2.414 -1.44,-0.551 -3.06,-0.829 -4.88,-0.829 -4.02,0 -7.16,1.317 -9.43,3.954 -2.27,2.636 -3.4,5.617 -3.4,8.941 0,3.129 0.96,5.914 2.87,8.363 2.44,3.114 5.7,4.668 9.78,4.668 4.21,0 7.56,-1.594 10.07,-4.781 1.79,-2.25 2.69,-5.063 2.72,-8.43 h -22.18 c 0.06,-2.863 0.97,-5.215 2.74,-7.043 1.77,-1.832 3.96,-2.746 6.56,-2.746 1.26,0 2.48,0.215 3.67,0.653 1.18,0.437 2.19,1.015 3.02,1.738 0.84,0.723 1.74,1.887 2.7,3.5"
             id="path3619" />
          <path
             d="m 1682.8,270.94 h 3.17 v -4.418 c 1.27,1.691 2.68,2.957 4.22,3.796 1.54,0.84 3.22,1.258 5.03,1.258 1.84,0 3.48,-0.469 4.9,-1.406 1.43,-0.938 2.48,-2.195 3.16,-3.785 0.68,-1.582 1.03,-4.055 1.03,-7.41 v -12.692 h -3.17 v 11.762 c 0,2.84 -0.13,4.738 -0.36,5.691 -0.37,1.629 -1.07,2.856 -2.12,3.684 -1.04,0.82 -2.4,1.23 -4.07,1.23 -1.92,0 -3.65,-0.632 -5.16,-1.902 -1.52,-1.269 -2.52,-2.84 -3,-4.715 -0.31,-1.218 -0.46,-3.457 -0.46,-6.707 v -9.043 h -3.17 v 24.657"
             id="path3621" />
          <path
             d="m 1714.2,280.09 h 3.17 v -9.156 h 5.03 v -2.743 h -5.03 v -21.914 h -3.17 v 21.914 h -4.33 v 2.743 h 4.33 v 9.156"
             id="path3623" />
          <path
             d="m 1748.3,261.1 c -0.42,1.692 -1.04,3.043 -1.85,4.055 -0.8,1.012 -1.88,1.828 -3.21,2.449 -1.33,0.618 -2.73,0.93 -4.2,0.93 -2.41,0 -4.5,-0.781 -6.23,-2.336 -1.27,-1.133 -2.24,-2.832 -2.88,-5.098 z m 0,-6.64 2.68,-1.406 c -0.88,-1.723 -1.89,-3.11 -3.04,-4.168 -1.15,-1.059 -2.44,-1.864 -3.88,-2.414 -1.44,-0.551 -3.07,-0.829 -4.88,-0.829 -4.02,0 -7.17,1.317 -9.43,3.954 -2.27,2.636 -3.41,5.617 -3.41,8.941 0,3.129 0.96,5.914 2.88,8.363 2.44,3.114 5.7,4.668 9.78,4.668 4.2,0 7.56,-1.594 10.07,-4.781 1.79,-2.25 2.69,-5.063 2.72,-8.43 h -22.18 c 0.06,-2.863 0.97,-5.215 2.74,-7.043 1.77,-1.832 3.96,-2.746 6.56,-2.746 1.25,0 2.47,0.215 3.66,0.653 1.19,0.437 2.2,1.015 3.03,1.738 0.83,0.723 1.74,1.887 2.7,3.5"
             id="path3625" />
          <path
             d="m 1756.9,270.94 h 3.24 v -3.602 c 0.97,1.422 1.99,2.48 3.06,3.184 1.07,0.703 2.19,1.054 3.35,1.054 0.88,0 1.81,-0.281 2.81,-0.84 l -1.65,-2.671 c -0.67,0.285 -1.22,0.429 -1.68,0.429 -1.06,0 -2.08,-0.433 -3.06,-1.304 -0.98,-0.868 -1.73,-2.215 -2.24,-4.043 -0.39,-1.407 -0.59,-4.247 -0.59,-8.52 v -8.344 h -3.24 v 24.657"
             id="path3627" />
          <path
             d="m 1258,225.62 v -3.105 c -1.16,0.5 -2.16,0.746 -2.99,0.746 -0.62,0 -1.13,-0.125 -1.54,-0.375 -0.41,-0.246 -0.66,-0.536 -0.77,-0.86 -0.11,-0.324 -0.16,-1.187 -0.16,-2.593 V 216.1 h 5.14 v -2.742 h -5.14 l -0.02,-21.914 h -3.18 v 21.914 h -3.23 v 2.742 h 3.23 v 3.852 c 0,1.77 0.17,3.031 0.49,3.789 0.33,0.754 0.88,1.359 1.65,1.82 0.79,0.461 1.72,0.692 2.83,0.692 1.03,0 2.26,-0.211 3.69,-0.633"
             id="path3629" />
          <path
             d="m 1273.5,213.64 c -2.64,0 -4.91,-0.977 -6.8,-2.922 -1.9,-1.949 -2.84,-4.309 -2.84,-7.074 0,-1.782 0.43,-3.446 1.29,-4.985 0.87,-1.539 2.03,-2.73 3.5,-3.57 1.48,-0.836 3.09,-1.258 4.85,-1.258 1.75,0 3.37,0.422 4.84,1.258 1.47,0.84 2.64,2.031 3.5,3.57 0.87,1.539 1.3,3.203 1.3,4.985 0,2.765 -0.95,5.125 -2.85,7.074 -1.91,1.945 -4.17,2.922 -6.79,2.922 z m 0.01,3.105 c 3.8,0 6.94,-1.375 9.44,-4.125 2.27,-2.508 3.41,-5.476 3.41,-8.906 0,-3.445 -1.2,-6.457 -3.6,-9.031 -2.4,-2.575 -5.48,-3.864 -9.25,-3.864 -3.79,0 -6.88,1.289 -9.27,3.864 -2.4,2.574 -3.6,5.586 -3.6,9.031 0,3.414 1.13,6.375 3.4,8.883 2.5,2.761 5.66,4.148 9.47,4.148"
             id="path3631" />
          <path
             d="m 1290.4,216.1 h 3.25 v -3.601 c 0.96,1.418 1.98,2.48 3.05,3.184 1.07,0.703 2.19,1.054 3.36,1.054 0.87,0 1.81,-0.281 2.81,-0.84 l -1.66,-2.675 c -0.66,0.289 -1.22,0.429 -1.67,0.429 -1.06,0 -2.08,-0.433 -3.06,-1.301 -0.99,-0.871 -1.73,-2.218 -2.25,-4.046 -0.39,-1.403 -0.58,-4.246 -0.58,-8.52 v -8.34 h -3.25 V 216.1"
             id="path3633" />
          <path
             d="m 1314.3,197.66 2.84,1.699 c 1.99,-3.671 4.29,-5.507 6.91,-5.507 1.12,0 2.17,0.261 3.15,0.781 0.98,0.523 1.73,1.222 2.24,2.097 0.51,0.875 0.77,1.805 0.77,2.786 0,1.121 -0.38,2.214 -1.13,3.289 -1.04,1.48 -2.95,3.261 -5.71,5.347 -2.78,2.102 -4.51,3.618 -5.19,4.555 -1.18,1.57 -1.77,3.27 -1.77,5.098 0,1.453 0.35,2.773 1.04,3.965 0.7,1.195 1.68,2.136 2.94,2.824 1.26,0.687 2.63,1.031 4.11,1.031 1.57,0 3.04,-0.391 4.41,-1.168 1.36,-0.777 2.81,-2.211 4.34,-4.297 l -2.72,-2.058 c -1.26,1.66 -2.32,2.757 -3.21,3.285 -0.88,0.527 -1.85,0.793 -2.89,0.793 -1.34,0 -2.44,-0.41 -3.29,-1.223 -0.86,-0.816 -1.28,-1.82 -1.28,-3.016 0,-0.722 0.14,-1.425 0.45,-2.105 0.3,-0.684 0.85,-1.422 1.65,-2.223 0.44,-0.422 1.88,-1.535 4.31,-3.332 2.88,-2.129 4.86,-4.023 5.94,-5.687 1.07,-1.664 1.6,-3.332 1.6,-5.008 0,-2.418 -0.91,-4.52 -2.75,-6.301 -1.84,-1.781 -4.07,-2.676 -6.7,-2.676 -2.02,0 -3.86,0.543 -5.5,1.621 -1.65,1.083 -3.17,2.891 -4.56,5.43"
             id="path3635" />
          <path
             d="m 1363.6,210.98 -2.52,-1.562 c -2.17,2.883 -5.13,4.328 -8.89,4.328 -3.01,0 -5.5,-0.969 -7.48,-2.898 -1.99,-1.934 -2.98,-4.278 -2.98,-7.039 0,-1.797 0.45,-3.489 1.37,-5.071 0.91,-1.586 2.17,-2.816 3.76,-3.687 1.59,-0.879 3.37,-1.317 5.35,-1.317 3.62,0 6.58,1.446 8.87,4.328 l 2.52,-1.652 c -1.18,-1.777 -2.76,-3.152 -4.75,-4.129 -1.99,-0.98 -4.25,-1.469 -6.79,-1.469 -3.89,0 -7.13,1.239 -9.7,3.715 -2.57,2.481 -3.85,5.492 -3.85,9.043 0,2.387 0.6,4.602 1.8,6.653 1.2,2.046 2.86,3.644 4.96,4.793 2.09,1.144 4.45,1.722 7.04,1.722 1.64,0 3.21,-0.25 4.73,-0.75 1.52,-0.496 2.81,-1.148 3.86,-1.949 1.06,-0.801 1.96,-1.82 2.7,-3.059"
             id="path3637" />
          <path
             d="m 1368.6,216.1 h 3.18 v -24.656 h -3.18 z m 1.58,10.153 c 0.72,0 1.34,-0.254 1.85,-0.77 0.51,-0.511 0.77,-1.133 0.77,-1.859 0,-0.711 -0.26,-1.32 -0.77,-1.836 -0.51,-0.512 -1.13,-0.77 -1.85,-0.77 -0.71,0 -1.31,0.258 -1.83,0.77 -0.51,0.516 -0.76,1.125 -0.76,1.836 0,0.726 0.25,1.348 0.76,1.859 0.52,0.516 1.12,0.77 1.83,0.77"
             id="path3639" />
          <path
             d="m 1398.6,206.27 c -0.43,1.695 -1.04,3.046 -1.85,4.058 -0.81,1.012 -1.88,1.828 -3.21,2.449 -1.33,0.618 -2.73,0.926 -4.2,0.926 -2.42,0 -4.5,-0.777 -6.24,-2.336 -1.27,-1.129 -2.23,-2.828 -2.88,-5.097 z m 0,-6.637 2.67,-1.406 c -0.87,-1.723 -1.89,-3.114 -3.04,-4.172 -1.15,-1.055 -2.44,-1.86 -3.88,-2.414 -1.43,-0.551 -3.06,-0.825 -4.87,-0.825 -4.02,0 -7.17,1.317 -9.44,3.954 -2.27,2.636 -3.4,5.617 -3.4,8.941 0,3.125 0.96,5.914 2.88,8.363 2.43,3.11 5.69,4.668 9.78,4.668 4.2,0 7.55,-1.594 10.07,-4.781 1.78,-2.254 2.69,-5.063 2.72,-8.43 h -22.19 c 0.06,-2.867 0.98,-5.215 2.75,-7.047 1.77,-1.828 3.95,-2.746 6.56,-2.746 1.25,0 2.47,0.219 3.66,0.657 1.19,0.433 2.2,1.015 3.03,1.738 0.83,0.722 1.73,1.887 2.7,3.5"
             id="path3641" />
          <path
             d="m 1407.4,216.1 h 3.17 v -4.417 c 1.27,1.691 2.67,2.957 4.22,3.796 1.54,0.836 3.22,1.258 5.03,1.258 1.84,0 3.48,-0.469 4.91,-1.406 1.42,-0.938 2.48,-2.199 3.16,-3.785 0.68,-1.586 1.02,-4.055 1.02,-7.41 v -12.692 h -3.18 v 11.762 c 0,2.84 -0.11,4.738 -0.35,5.687 -0.37,1.633 -1.07,2.86 -2.12,3.684 -1.04,0.824 -2.4,1.234 -4.07,1.234 -1.92,0 -3.64,-0.632 -5.16,-1.902 -1.52,-1.269 -2.52,-2.84 -3,-4.715 -0.31,-1.222 -0.46,-3.461 -0.46,-6.707 v -9.043 h -3.17 V 216.1"
             id="path3643" />
          <path
             d="m 1437.8,225.26 h 3.17 v -9.157 h 5.03 v -2.742 h -5.03 v -21.914 h -3.17 v 21.914 h -4.33 v 2.742 h 4.33 v 9.157"
             id="path3645" />
          <path
             d="m 1449.7,216.1 h 3.17 v -24.656 h -3.17 z m 1.57,10.153 c 0.73,0 1.34,-0.254 1.85,-0.77 0.52,-0.511 0.77,-1.133 0.77,-1.859 0,-0.711 -0.25,-1.32 -0.77,-1.836 -0.51,-0.512 -1.12,-0.77 -1.85,-0.77 -0.7,0 -1.31,0.258 -1.83,0.77 -0.5,0.516 -0.76,1.125 -0.76,1.836 0,0.726 0.26,1.348 0.76,1.859 0.52,0.516 1.13,0.77 1.83,0.77"
             id="path3647" />
          <path
             d="m 1469,225.62 v -3.105 c -1.17,0.5 -2.16,0.746 -3,0.746 -0.61,0 -1.13,-0.125 -1.54,-0.375 -0.41,-0.246 -0.66,-0.536 -0.77,-0.86 -0.1,-0.324 -0.16,-1.187 -0.16,-2.593 V 216.1 h 5.15 v -2.742 h -5.15 l -0.02,-21.914 h -3.17 v 21.914 h -3.24 v 2.742 h 3.24 v 3.852 c 0,1.77 0.16,3.031 0.49,3.789 0.32,0.754 0.87,1.359 1.65,1.82 0.78,0.461 1.72,0.692 2.82,0.692 1.03,0 2.26,-0.211 3.7,-0.633"
             id="path3649" />
          <path
             d="m 1472.4,216.1 h 3.17 v -24.656 h -3.17 z m 1.57,10.153 c 0.72,0 1.34,-0.254 1.85,-0.77 0.51,-0.511 0.77,-1.133 0.77,-1.859 0,-0.711 -0.26,-1.32 -0.77,-1.836 -0.51,-0.512 -1.13,-0.77 -1.85,-0.77 -0.71,0 -1.32,0.258 -1.83,0.77 -0.51,0.516 -0.76,1.125 -0.76,1.836 0,0.726 0.25,1.348 0.76,1.859 0.51,0.516 1.12,0.77 1.83,0.77"
             id="path3651" />
          <path
             d="m 1505.5,210.98 -2.51,-1.562 c -2.18,2.883 -5.14,4.328 -8.9,4.328 -3,0 -5.5,-0.969 -7.48,-2.898 -1.99,-1.934 -2.98,-4.278 -2.98,-7.039 0,-1.797 0.46,-3.489 1.37,-5.071 0.91,-1.586 2.17,-2.816 3.76,-3.687 1.59,-0.879 3.38,-1.317 5.35,-1.317 3.62,0 6.58,1.446 8.88,4.328 l 2.51,-1.652 c -1.18,-1.777 -2.76,-3.152 -4.75,-4.129 -1.98,-0.98 -4.25,-1.469 -6.78,-1.469 -3.9,0 -7.14,1.239 -9.71,3.715 -2.56,2.481 -3.85,5.492 -3.85,9.043 0,2.387 0.6,4.602 1.81,6.653 1.2,2.046 2.85,3.644 4.95,4.793 2.09,1.144 4.45,1.722 7.04,1.722 1.64,0 3.21,-0.25 4.73,-0.75 1.52,-0.496 2.8,-1.148 3.86,-1.949 1.06,-0.801 1.96,-1.82 2.7,-3.059"
             id="path3653" />
          <path
             d="m 1554.8,218.6 -2.63,-2.016 c -1.45,1.887 -3.2,3.32 -5.22,4.297 -2.04,0.973 -4.27,1.457 -6.7,1.457 -2.66,0 -5.12,-0.637 -7.39,-1.914 -2.27,-1.277 -4.02,-2.988 -5.27,-5.145 -1.25,-2.152 -1.87,-4.57 -1.87,-7.261 0,-4.063 1.39,-7.457 4.18,-10.176 2.79,-2.719 6.3,-4.078 10.55,-4.078 4.67,0 8.57,1.828 11.72,5.484 l 2.63,-1.996 c -1.67,-2.113 -3.74,-3.75 -6.23,-4.906 -2.48,-1.153 -5.26,-1.735 -8.32,-1.735 -5.84,0 -10.43,1.946 -13.8,5.829 -2.83,3.277 -4.24,7.234 -4.24,11.871 0,4.882 1.71,8.988 5.13,12.32 3.42,3.328 7.71,4.996 12.86,4.996 3.11,0 5.93,-0.617 8.43,-1.848 2.51,-1.23 4.57,-2.957 6.17,-5.179"
             id="path3655" />
          <path
             d="m 1572,213.64 c -2.64,0 -4.91,-0.977 -6.8,-2.922 -1.9,-1.949 -2.84,-4.309 -2.84,-7.074 0,-1.782 0.43,-3.446 1.29,-4.985 0.87,-1.539 2.03,-2.73 3.5,-3.57 1.47,-0.836 3.09,-1.258 4.85,-1.258 1.75,0 3.37,0.422 4.84,1.258 1.47,0.84 2.64,2.031 3.5,3.57 0.87,1.539 1.3,3.203 1.3,4.985 0,2.765 -0.95,5.125 -2.85,7.074 -1.91,1.945 -4.17,2.922 -6.79,2.922 z m 0.01,3.105 c 3.8,0 6.95,-1.375 9.44,-4.125 2.27,-2.508 3.41,-5.476 3.41,-8.906 0,-3.445 -1.2,-6.457 -3.6,-9.031 -2.4,-2.575 -5.48,-3.864 -9.25,-3.864 -3.79,0 -6.88,1.289 -9.28,3.864 -2.39,2.574 -3.59,5.586 -3.59,9.031 0,3.414 1.13,6.375 3.4,8.883 2.5,2.761 5.66,4.148 9.47,4.148"
             id="path3657" />
          <path
             d="m 1590.1,216.1 h 3.17 v -4.261 c 1.11,1.574 2.24,2.722 3.41,3.445 1.6,0.969 3.29,1.453 5.06,1.453 1.19,0 2.33,-0.234 3.4,-0.703 1.07,-0.469 1.95,-1.094 2.63,-1.871 0.68,-0.777 1.27,-1.891 1.77,-3.344 1.05,1.938 2.37,3.403 3.96,4.41 1.58,1.004 3.28,1.508 5.11,1.508 1.7,0 3.21,-0.429 4.51,-1.293 1.3,-0.859 2.27,-2.062 2.9,-3.605 0.64,-1.539 0.95,-3.852 0.95,-6.934 v -13.461 h -3.24 v 13.461 c 0,2.645 -0.19,4.461 -0.56,5.453 -0.38,0.985 -1.03,1.785 -1.94,2.391 -0.91,0.601 -1.99,0.902 -3.26,0.902 -1.54,0 -2.94,-0.449 -4.21,-1.359 -1.28,-0.902 -2.21,-2.113 -2.79,-3.625 -0.59,-1.508 -0.88,-4.031 -0.88,-7.567 v -9.656 h -3.17 v 12.625 c 0,2.973 -0.19,4.996 -0.56,6.063 -0.37,1.062 -1.01,1.918 -1.94,2.558 -0.92,0.641 -2.01,0.961 -3.28,0.961 -1.47,0 -2.84,-0.437 -4.12,-1.324 -1.27,-0.883 -2.22,-2.074 -2.83,-3.566 -0.61,-1.496 -0.92,-3.786 -0.92,-6.868 v -10.449 h -3.17 V 216.1"
             id="path3659" />
          <path
             d="m 1645.8,213.68 c -2.74,0 -5.05,-0.961 -6.93,-2.879 -1.88,-1.914 -2.81,-4.301 -2.81,-7.153 0,-1.871 0.41,-3.55 1.25,-5.047 0.84,-1.492 2.04,-2.679 3.59,-3.55 1.57,-0.879 3.21,-1.317 4.95,-1.317 1.7,0 3.3,0.442 4.8,1.325 1.5,0.882 2.7,2.117 3.58,3.703 0.89,1.582 1.34,3.242 1.34,4.976 0,1.75 -0.44,3.414 -1.33,4.985 -0.87,1.566 -2.06,2.785 -3.56,3.652 -1.49,0.867 -3.12,1.305 -4.88,1.305 z m -12.69,2.421 h 3.17 v -4.531 c 1.26,1.723 2.7,3.016 4.33,3.875 1.63,0.864 3.44,1.293 5.45,1.293 3.5,0 6.5,-1.262 8.99,-3.785 2.49,-2.523 3.74,-5.559 3.74,-9.109 0,-3.629 -1.24,-6.707 -3.71,-9.235 -2.46,-2.535 -5.44,-3.797 -8.93,-3.797 -1.96,0 -3.76,0.407 -5.41,1.223 -1.64,0.816 -3.13,2.031 -4.46,3.649 v -13.258 h -3.17 v 33.675"
             id="path3661" />
          <path
             d="m 1663.7,216.1 h 3.18 v -11.511 c 0,-2.809 0.15,-4.742 0.45,-5.801 0.46,-1.512 1.32,-2.707 2.6,-3.582 1.28,-0.875 2.8,-1.313 4.57,-1.313 1.77,0 3.27,0.426 4.51,1.282 1.23,0.851 2.08,1.972 2.55,3.363 0.32,0.949 0.48,2.969 0.48,6.051 V 216.1 h 3.24 v -12.101 c 0,-3.399 -0.4,-5.961 -1.19,-7.684 -0.8,-1.722 -1.99,-3.07 -3.58,-4.043 -1.6,-0.976 -3.6,-1.461 -6,-1.461 -2.4,0 -4.4,0.485 -6.01,1.461 -1.61,0.973 -2.82,2.336 -3.61,4.078 -0.79,1.747 -1.19,4.372 -1.19,7.875 V 216.1"
             id="path3663" />
          <path
             d="m 1694.5,225.26 h 3.17 v -9.157 h 5.03 v -2.742 h -5.03 v -21.914 h -3.17 v 21.914 h -4.33 v 2.742 h 4.33 v 9.157"
             id="path3665" />
          <path
             d="m 1706.4,216.1 h 3.17 v -24.656 h -3.17 z m 1.58,10.153 c 0.71,0 1.33,-0.254 1.84,-0.77 0.51,-0.511 0.77,-1.133 0.77,-1.859 0,-0.711 -0.26,-1.32 -0.77,-1.836 -0.51,-0.512 -1.13,-0.77 -1.84,-0.77 -0.72,0 -1.32,0.258 -1.83,0.77 -0.51,0.516 -0.77,1.125 -0.77,1.836 0,0.726 0.26,1.348 0.77,1.859 0.51,0.516 1.11,0.77 1.83,0.77"
             id="path3667" />
          <path
             d="m 1715.5,216.1 h 3.17 v -4.417 c 1.27,1.691 2.68,2.957 4.22,3.796 1.54,0.836 3.22,1.258 5.03,1.258 1.85,0 3.48,-0.469 4.91,-1.406 1.43,-0.938 2.48,-2.199 3.16,-3.785 0.68,-1.586 1.02,-4.055 1.02,-7.41 v -12.692 h -3.18 v 11.762 c 0,2.84 -0.11,4.738 -0.35,5.687 -0.37,1.633 -1.07,2.86 -2.11,3.684 -1.04,0.824 -2.4,1.234 -4.08,1.234 -1.92,0 -3.64,-0.632 -5.16,-1.902 -1.52,-1.269 -2.52,-2.84 -3,-4.715 -0.3,-1.222 -0.46,-3.461 -0.46,-6.707 v -9.043 h -3.17 V 216.1"
             id="path3669" />
          <path
             d="m 1755.1,213.68 c -1.8,0 -3.47,-0.438 -5,-1.305 -1.55,-0.871 -2.75,-2.07 -3.63,-3.602 -0.88,-1.535 -1.32,-3.195 -1.32,-4.976 0,-2.703 0.91,-4.942 2.72,-6.707 1.81,-1.77 4.17,-2.653 7.05,-2.653 2.92,0 5.26,0.875 7.03,2.629 1.78,1.754 2.67,4.055 2.67,6.914 0,1.856 -0.41,3.512 -1.22,4.973 -0.82,1.457 -1.98,2.609 -3.47,3.457 -1.5,0.844 -3.1,1.27 -4.83,1.27 z m 9.36,2.421 h 3.17 v -19.648 c 0,-3.457 -0.3,-5.988 -0.9,-7.59 -0.83,-2.265 -2.28,-4.012 -4.33,-5.234 -2.06,-1.227 -4.53,-1.836 -7.41,-1.836 -2.12,0 -4.02,0.297 -5.7,0.898 -1.69,0.598 -3.05,1.399 -4.11,2.407 -1.06,1.007 -2.04,2.48 -2.93,4.421 h 3.45 c 0.93,-1.632 2.15,-2.839 3.63,-3.628 1.48,-0.782 3.32,-1.176 5.51,-1.176 2.16,0 3.99,0.402 5.48,1.211 1.49,0.804 2.55,1.816 3.19,3.035 0.63,1.223 0.95,3.187 0.95,5.906 v 1.27 c -1.19,-1.512 -2.65,-2.672 -4.38,-3.481 -1.72,-0.805 -3.55,-1.211 -5.48,-1.211 -2.27,0 -4.41,0.563 -6.4,1.688 -2,1.125 -3.54,2.64 -4.63,4.547 -1.09,1.902 -1.64,3.996 -1.64,6.277 0,2.277 0.57,4.406 1.71,6.379 1.13,1.973 2.7,3.531 4.71,4.68 2,1.144 4.11,1.722 6.33,1.722 1.85,0 3.57,-0.383 5.17,-1.148 1.59,-0.762 3.13,-2.02 4.61,-3.77 v 4.281"
             id="path3671" />
        </g>
      </g>
    </g>
  </g>
</svg>
